<svg viewBox="0 0 200 35" fill="none" xmlns="http://www.w3.org/2000/svg">
<path d="M30.3527 29.0656V18.5033L29.6832 18.3128C29.4601 18.2311 29.2927 18.0133 29.2927 17.7956V15.1006C29.2927 14.91 29.488 14.5833 29.7111 14.5833H38.163C41.6498 14.5833 42.8213 16.87 42.8213 19.8917V21.0078L42.7655 22.4778C42.7097 23.3761 42.2634 24.4106 41.594 25.0367C41.5661 25.0639 41.3987 25.1728 41.3987 25.2C41.4266 25.2272 41.4824 25.2817 41.5103 25.2817C42.3471 25.935 42.654 27.16 42.6819 28.1672L42.7097 29.0656C42.8213 29.12 43.2676 29.2561 43.3792 29.2833C43.6024 29.365 43.7976 29.5283 43.7976 29.7733V32.4956C43.7976 32.7406 43.5745 33.0128 43.3234 33.0128H39.3904C39.1393 33.0128 38.944 32.6861 38.944 32.4683V28.9567C38.944 28.2217 38.6093 27.3233 37.7446 27.3233H34.1463V27.7861H34.5089L34.1463 28.0583V28.4939L35.0947 27.7861H35.541L34.1463 28.8206V29.0656L34.3136 29.12L36.1268 27.7861H36.601L34.6484 29.2017C35.011 29.3378 35.262 29.4739 35.262 29.8822V32.4139C35.262 32.6589 35.0947 33.0128 34.7878 33.0128H29.739C29.488 33.0128 29.2927 32.7133 29.2927 32.4956V29.8006C29.2927 29.5828 29.4601 29.365 29.6553 29.3106L30.3527 29.0656ZM26.9217 17.4144V17.0878L27.647 16.5706H28.0933L26.9217 17.4144ZM26.9217 17.85L28.6791 16.5706H28.8185V16.7883L26.9217 18.1767V17.85ZM26.9217 18.6122L28.8185 17.2239V17.5506L26.9217 18.9389V18.6122ZM26.9217 19.7011V19.3744L28.7906 18.0133C28.8464 18.0406 28.8464 18.2311 28.8464 18.3128L26.9217 19.7011ZM27.0054 20.0822L28.9859 18.6394C29.0696 18.6939 29.1254 18.7211 29.2369 18.7756L27.2286 20.2456C27.1728 20.2456 27.0054 20.0822 27.0054 20.0822ZM34.1463 18.6394V19.3744C34.2021 19.3472 34.481 19.1294 34.5368 19.1022H34.9831L34.1463 19.7283V20.1367L35.5689 19.1022H36.0152L34.1463 20.4633V23.2672H37.1588L38.5814 22.2328C38.5814 22.3144 38.5814 22.5594 38.5256 22.6139L37.6609 23.24C38.9998 23.24 39.0277 22.26 39.0556 21.28V20.8717C39.0556 20.4361 39.0556 19.9733 38.9719 19.5378C38.8604 18.6394 38.2467 18.6394 37.4378 18.6394H34.1463ZM27.9259 20.4633L27.6191 20.3817L29.6274 18.9117H29.6553L29.9064 18.9661V19.0478L27.9817 20.4633C27.9538 20.4633 27.9538 20.4906 27.9259 20.4906V20.4633ZM34.5368 20.6267L36.6288 19.1022H37.0473L34.9831 20.6267H34.5368ZM35.5689 20.6539H35.541L37.5772 19.1567C37.633 19.1567 37.912 19.1839 37.9399 19.2111L35.9315 20.6811C35.9315 20.7083 35.9315 20.7083 35.9036 20.7083C35.792 20.7083 35.6526 20.6539 35.5689 20.6539ZM36.2941 20.8444L38.2746 19.4289C38.3583 19.4561 38.442 19.565 38.442 19.6194L36.4894 21.035C36.4336 20.9806 36.3499 20.9261 36.2941 20.8444ZM28.0096 21.1983V20.8717L29.9064 19.4833V19.81L28.0096 21.1983ZM36.601 21.3889L38.5256 19.9733V20.0006C38.5256 20.0006 38.5535 20.1639 38.5535 20.3L36.6288 21.6883L36.601 21.3889ZM28.0096 21.9606V21.6339L29.9064 20.2183V20.5722L28.0096 21.9606ZM36.6846 22.0967L38.5814 20.7083C38.6093 20.7628 38.6093 20.8989 38.6093 21.0078L36.6846 22.4233V22.0967ZM28.0096 22.3961L29.9064 20.9806V21.3344L28.0096 22.7228V22.3961ZM36.6846 22.8317L38.6093 21.4433V21.7156C38.6093 21.7428 38.6093 21.77 38.5814 21.77L36.6846 23.1856V22.8317ZM28.0096 23.4578V23.1583L29.9064 21.7428V22.0422L28.0096 23.4578ZM28.0096 24.22V23.8661L29.9064 22.4778V22.8044L28.0096 24.22ZM28.0096 24.6283L29.9064 23.24V23.5667L28.0096 24.955V24.6283ZM28.0096 25.3906L29.9064 24.0022V24.3289L28.0096 25.7172V25.3906ZM28.0096 26.4794V26.1528L29.9064 24.7644V25.0911L28.0096 26.4794ZM28.0096 26.915L29.9064 25.5267V25.8533L28.0096 27.2417V26.915ZM28.0096 27.6772L29.9064 26.2889V26.6156L28.0096 28.0039V27.6772ZM28.0096 28.7661V28.4394L29.9064 27.0511V27.3778L28.0096 28.7661ZM35.0947 29.3106L37.1867 27.7861C37.3262 27.7861 37.4657 27.7861 37.5772 27.8406L35.541 29.3106C35.5131 29.3378 35.541 29.3378 35.5131 29.3378C35.3736 29.3378 35.2341 29.3106 35.0947 29.3106ZM28.0096 29.5283V29.2017L29.8785 27.8406C29.8785 27.8133 29.9064 27.8133 29.9064 27.8133V28.14L28.0096 29.5283ZM35.9315 29.4739L37.912 28.0039C37.9399 28.0039 38.1072 28.1672 38.1072 28.1944L36.1268 29.6372C36.071 29.5828 36.0152 29.5283 35.9315 29.4739ZM36.3499 29.9367L36.3778 29.9094L38.3025 28.4939L38.3862 28.7389C38.3862 28.7661 38.3862 28.7661 38.3583 28.7661L36.4615 30.1544C36.4057 30.1 36.3499 29.9911 36.3499 29.9367ZM28.0096 29.9639L29.9064 28.5756V28.9022L28.0096 30.2906V29.9639ZM36.5452 30.5356L38.442 29.1472C38.442 29.1472 38.4699 29.1744 38.4699 29.2017V29.4467L36.5452 30.8622V30.5356ZM36.5731 31.6244V31.2706L38.4699 29.8822V30.2089L36.5731 31.6244ZM28.0096 31.0528V30.7261L28.8743 30.0728C28.8464 30.2089 28.8464 30.3178 28.8185 30.4267L28.0096 31.0528ZM36.5731 32.0328L38.4699 30.6444V30.9711L36.5731 32.3594V32.0328ZM26.9217 32.6044V32.2778L28.8185 30.8622V31.2161L26.9217 32.6044ZM27.2843 31.2978L27.9259 31.1072L26.9217 31.8422C26.9217 31.57 27.0612 31.3794 27.2843 31.2978ZM36.5731 33.1217V32.795L38.4699 31.4067V31.7333L36.5731 33.1217ZM28.8185 31.6244V31.9511L26.9217 33.3394V33.04L28.8185 31.6244ZM36.5731 33.8839V33.5572L38.4699 32.1689V32.4956L36.5731 33.8839ZM26.9217 34.1017V33.775L28.7906 32.3867H28.8185V32.7133L26.9217 34.1017ZM36.5731 34.3194L38.4699 32.9311C38.4977 32.9856 38.5535 33.1489 38.5535 33.2033L36.601 34.6189C36.5731 34.5372 36.5731 34.4556 36.5731 34.3739V34.3194ZM26.9217 34.5372C26.9217 34.51 26.9217 34.51 26.9496 34.51L28.8464 33.1217C28.9022 33.2033 28.958 33.2578 29.0138 33.3394L27.0612 34.755L27.0333 34.7822C27.0054 34.7822 26.9217 34.5644 26.9217 34.5372ZM36.7962 34.9183L38.8046 33.4483H38.8883C38.9719 33.4756 39.0835 33.4756 39.1672 33.4756L37.103 35C36.9915 35 36.9078 34.9728 36.7962 34.9183ZM27.3401 34.9728L29.4043 33.4756H29.8506L27.7864 35H27.3401V34.9728ZM28.8185 35H28.3722L30.4364 33.4756H30.8827L28.8185 35ZM29.4043 35L31.4685 33.4756H31.9426L29.8506 35H29.4043ZM30.4364 35L32.5284 33.4756H32.8632V33.5572L30.9106 35H30.4364ZM38.1351 35H37.6888L39.753 33.4756H40.1993L38.1351 35ZM39.1672 35H38.7209L40.7851 33.4756H41.2593L39.1672 35ZM41.4266 33.775V34.1017L40.2272 35H39.753L41.4266 33.775ZM31.9426 35H31.4963L32.8632 33.9928V34.3194L31.9426 35ZM40.813 35L41.4266 34.5372C41.4266 34.7822 41.1198 35 40.8966 35H40.813Z" fill="#FFFFB8"/>
<path d="M47.2286 29.0656V18.5033L46.5592 18.3128C46.336 18.2311 46.1686 18.0133 46.1686 17.7956V15.1006C46.1686 14.91 46.3639 14.5833 46.587 14.5833H51.6916C51.9148 14.5833 52.1101 14.8828 52.1101 15.0733V17.7956C52.1101 18.0133 51.9427 18.2583 51.7195 18.3128C51.608 18.34 51.1338 18.4761 51.0501 18.5033H51.0222V29.0656L51.7753 29.3106C51.9427 29.365 52.1101 29.61 52.1101 29.8006V32.4956C52.1101 32.7406 51.8869 33.0128 51.6637 33.0128H46.6428C46.3918 33.0128 46.1686 32.7133 46.1686 32.4956V29.7461C46.0013 29.8006 45.8339 29.8822 45.7781 30.0456C45.7502 30.1 45.7502 30.1544 45.7223 30.1817L44.8855 30.8078V30.4539L46.7823 29.0656V29.2289L47.2286 29.0656ZM43.9371 16.7611C44.0208 16.7067 44.1324 16.5706 44.2718 16.5706H44.6624L43.7976 17.1967C43.7976 17.0606 43.8255 16.8428 43.9371 16.7611ZM43.7976 17.6322L45.2481 16.5706H45.6944L43.7976 17.9589V17.6322ZM43.7976 18.3944L45.7223 16.9789V17.3056L43.7976 18.7211V18.3944ZM43.7976 19.4833V19.1294L45.6665 17.7683C45.6944 17.7683 45.6944 17.7411 45.7223 17.7411V18.0678L43.7976 19.4833ZM43.8255 19.8917L45.7781 18.4761C45.806 18.5578 45.8618 18.6122 45.9176 18.6939L43.9371 20.1367C43.9092 20.1094 43.7976 19.9189 43.8255 19.8917ZM44.5787 20.4089L44.2718 20.3272L46.2802 18.83H46.336L46.6149 18.9117V18.9389L44.5787 20.4089ZM44.8855 20.9261V20.6267L46.7823 19.2383V19.5378L44.8855 20.9261ZM44.8855 21.3617L46.7823 19.9733V20.3L44.8855 21.6883V21.3617ZM44.8855 22.1239L46.7823 20.7356V21.0622L44.8855 22.4506V22.1239ZM44.8855 23.2128V22.8861L46.7823 21.4978V21.8244L44.8855 23.2128ZM44.8855 23.6483L46.7823 22.26V22.5867L44.8855 23.975V23.6483ZM44.8855 24.4106L46.7823 23.0222V23.3489L44.8855 24.7372V24.4106ZM44.8855 25.4994V25.1728L46.7823 23.7572V24.1111L44.8855 25.4994ZM44.8855 26.2617V25.935L46.7823 24.5194V24.8733L44.8855 26.2617ZM44.8855 26.6972L46.7823 25.2817V25.6083L44.8855 27.0239V26.6972ZM44.8855 27.7861V27.4594L46.7823 26.0439V26.3706L44.8855 27.7861ZM44.8855 28.5483V28.1944L46.7823 26.8061V27.1328L44.8855 28.5483ZM44.8855 28.9567L46.7823 27.5683V27.895L44.8855 29.3106V28.9567ZM44.8855 29.7189L46.7823 28.3306V28.63L44.8855 30.0456V29.7189ZM43.7976 32.0056L45.7223 30.6172V30.9439L43.7976 32.3594V32.0056ZM44.1882 31.2978L43.8813 31.5156C43.8813 31.4339 44.1324 31.2978 44.1882 31.2978ZM43.7976 33.0944V32.7678L45.6665 31.4067C45.6944 31.4067 45.6944 31.3794 45.7223 31.3794V31.7061L43.7976 33.0944ZM43.7976 33.8567V33.53L45.7223 32.1417V32.4683L43.7976 33.8567ZM43.7976 34.2922L45.6944 32.9039H45.7223C45.7223 33.0128 45.7502 33.0944 45.7781 33.1761L43.8255 34.5917C43.7976 34.5372 43.7976 34.4556 43.7976 34.3739V34.2922ZM44.0208 34.8911H44.0487L46.0013 33.4483C46.085 33.4483 46.1407 33.4756 46.1965 33.4756H46.4197L44.3276 35C44.2161 35 44.0766 34.9728 44.0208 34.8911ZM45.3876 35H44.9413L47.0055 33.4756H47.4518L45.3876 35ZM45.9734 35L48.0375 33.4756H48.4838L46.4197 35H45.9734ZM47.0055 35L49.0975 33.4756H49.5438L47.4518 35H47.0055ZM48.5117 35H48.0654L49.767 33.7478V34.0744L48.5117 35ZM49.3207 35H49.0975L49.7391 34.51C49.7391 34.7278 49.5438 35 49.3207 35Z" fill="#FFFFB8"/>
<path d="M119.976 29.0656V18.5033L119.307 18.3128C119.083 18.2311 118.916 18.0133 118.916 17.7956V15.1006C118.916 14.91 119.111 14.5833 119.335 14.5833H124.439C124.662 14.5833 124.858 14.8828 124.858 15.0733V17.7956C124.858 18.0133 124.69 18.2583 124.467 18.3128C124.355 18.34 123.881 18.4761 123.798 18.5033H123.77V29.0656L124.523 29.3106C124.69 29.365 124.858 29.61 124.858 29.8006V32.4956C124.858 32.7406 124.634 33.0128 124.411 33.0128H119.39C119.139 33.0128 118.916 32.7133 118.916 32.4956V29.7461C118.749 29.8006 118.581 29.8822 118.526 30.0456C118.498 30.1 118.498 30.1544 118.47 30.1817L117.633 30.8078V30.4539L119.53 29.0656V29.2289L119.976 29.0656ZM116.685 16.7611C116.768 16.7067 116.88 16.5706 117.019 16.5706H117.41L116.545 17.1967C116.545 17.0606 116.573 16.8428 116.685 16.7611ZM116.545 17.6322L117.996 16.5706H118.442L116.545 17.9589V17.6322ZM116.545 18.3944L118.47 16.9789V17.3056L116.545 18.7211V18.3944ZM116.545 19.4833V19.1294L118.414 17.7683C118.442 17.7683 118.442 17.7411 118.47 17.7411V18.0678L116.545 19.4833ZM116.573 19.8917L118.526 18.4761C118.554 18.5578 118.609 18.6122 118.665 18.6939L116.685 20.1367C116.657 20.1094 116.545 19.9189 116.573 19.8917ZM117.326 20.4089L117.019 20.3272L119.028 18.83H119.084L119.362 18.9117V18.9389L117.326 20.4089ZM117.633 20.9261V20.6267L119.53 19.2383V19.5378L117.633 20.9261ZM117.633 21.3617L119.53 19.9733V20.3L117.633 21.6883V21.3617ZM117.633 22.1239L119.53 20.7356V21.0622L117.633 22.4506V22.1239ZM117.633 23.2128V22.8861L119.53 21.4978V21.8244L117.633 23.2128ZM117.633 23.6483L119.53 22.26V22.5867L117.633 23.975V23.6483ZM117.633 24.4106L119.53 23.0222V23.3489L117.633 24.7372V24.4106ZM117.633 25.4994V25.1728L119.53 23.7572V24.1111L117.633 25.4994ZM117.633 26.2617V25.935L119.53 24.5194V24.8733L117.633 26.2617ZM117.633 26.6972L119.53 25.2817V25.6083L117.633 27.0239V26.6972ZM117.633 27.7861V27.4594L119.53 26.0439V26.3706L117.633 27.7861ZM117.633 28.5483V28.1944L119.53 26.8061V27.1328L117.633 28.5483ZM117.633 28.9567L119.53 27.5683V27.895L117.633 29.3106V28.9567ZM117.633 29.7189L119.53 28.3306V28.63L117.633 30.0456V29.7189ZM116.545 32.0056L118.47 30.6172V30.9439L116.545 32.3594V32.0056ZM116.936 31.2978L116.629 31.5156C116.629 31.4339 116.88 31.2978 116.936 31.2978ZM116.545 33.0944V32.7678L118.414 31.4067C118.442 31.4067 118.442 31.3794 118.47 31.3794V31.7061L116.545 33.0944ZM116.545 33.8567V33.53L118.47 32.1417V32.4683L116.545 33.8567ZM116.545 34.2922L118.442 32.9039H118.47C118.47 33.0128 118.498 33.0944 118.526 33.1761L116.573 34.5917C116.545 34.5372 116.545 34.4556 116.545 34.3739V34.2922ZM116.768 34.8911H116.796L118.749 33.4483C118.832 33.4483 118.888 33.4756 118.944 33.4756H119.167L117.075 35C116.964 35 116.824 34.9728 116.768 34.8911ZM118.135 35H117.689L119.753 33.4756H120.199L118.135 35ZM118.721 35L120.785 33.4756H121.231L119.167 35H118.721ZM119.753 35L121.845 33.4756H122.291L120.199 35H119.753ZM121.259 35H120.813L122.514 33.7478V34.0744L121.259 35ZM122.068 35H121.845L122.487 34.51C122.487 34.7278 122.291 35 122.068 35Z" fill="#FFFFB8"/>
<path d="M131.413 23.5122L128.819 18.585L127.926 18.3128C127.703 18.2311 127.535 17.9589 127.535 17.7411V15.1006C127.535 14.91 127.759 14.5833 127.982 14.5833H133.393C133.644 14.5833 133.812 14.91 133.812 15.1278V16.8972L134.035 16.7339V17.0878C134.007 17.0878 133.867 17.1967 133.812 17.2511V17.6594C133.895 17.605 133.979 17.5506 134.035 17.4961V17.8228L133.728 18.0678C133.672 18.095 133.672 18.1767 133.588 18.2039C133.477 18.2583 133.421 18.2856 133.337 18.34V18.3128L133.031 18.4217C133.058 18.5306 133.198 18.8028 133.226 18.8572L134.063 18.2583C134.063 18.34 134.118 18.4489 134.118 18.5578L133.337 19.1022L133.505 19.4289L134.425 18.7483H134.453L134.732 18.8572L133.616 19.6739L133.644 19.7283C133.672 19.7556 133.756 19.9189 133.784 19.9733L134.676 19.32L134.425 19.8372L133.895 20.2183L134.035 20.545C134.063 20.545 134.063 20.5178 134.091 20.5178C134.091 20.545 134.063 20.5722 134.063 20.5722C134.063 20.5994 134.091 20.6539 134.091 20.6539C134.118 20.7083 134.174 20.79 134.174 20.79L135.318 18.4489C134.899 18.3128 134.509 18.2311 134.509 17.7411V15.1278C134.509 14.91 134.704 14.5833 134.955 14.5833H140.367C140.59 14.5833 140.785 14.91 140.785 15.1006V17.7683C140.785 17.9861 140.646 18.2311 140.422 18.2856L139.502 18.585L136.964 23.5122L139.809 29.0111H139.837L140.701 29.2833C140.897 29.365 141.064 29.5828 141.064 29.7733V32.4956C141.064 32.7406 140.841 32.9856 140.59 32.9856C139.865 32.9856 136.601 33.0128 135.904 33.0128H135.234C134.983 32.9856 134.788 32.7133 134.788 32.4683V29.8006C134.788 29.365 135.234 29.2833 135.569 29.1472L134.174 26.3433L133.839 26.9967V27.0511C133.839 27.0783 133.784 27.1328 133.784 27.1328L133.449 27.7861L134.007 27.3778L134.118 27.6228L133.17 28.3306L132.835 28.9839L134.286 27.9494L134.397 28.1672V28.1944L132.975 29.2289C133.031 29.2561 133.254 29.3378 133.365 29.365L134.565 28.4939L134.676 28.7389L133.533 29.5828C133.505 29.5828 133.505 29.5828 133.505 29.61C133.505 29.6644 133.533 29.7189 133.561 29.7733V29.9911L134.844 29.0656L134.955 29.2833V29.3106L133.561 30.3178V30.7533L134.342 30.1817C134.342 30.2906 134.314 30.4267 134.314 30.5083L133.561 31.08V31.5156L134.314 30.9439V31.2706L133.561 31.8422V32.2506L134.314 31.7061V32.0056L133.561 32.5772C133.505 32.6044 133.505 32.6861 133.477 32.7133C133.421 32.8494 133.254 32.9856 133.086 33.0128H132.445C131.72 33.0128 128.428 32.9856 127.731 32.9856C127.452 32.9856 127.229 32.7406 127.229 32.4683V29.8006C127.229 29.7189 127.284 29.6644 127.284 29.61L126.615 30.0728L126.894 29.5556L128.707 28.2217L128.428 28.7661L127.786 29.2289C127.814 29.2289 127.842 29.2017 127.87 29.2017C128.038 29.1472 128.484 29.0111 128.484 29.0111L131.413 23.5122ZM125.164 17.1967L126.029 16.5706H126.475L125.164 17.5233V17.1967ZM125.164 18.2856V17.9317L127.033 16.5978C127.061 16.5706 127.061 16.5706 127.089 16.5706V16.87L125.164 18.2856ZM125.164 18.6939L127.089 17.3056V17.6322L125.164 19.0206V18.6939ZM125.164 19.7556V19.4561L127.089 18.0678C127.089 18.1767 127.117 18.2856 127.117 18.3672L125.192 19.7828L125.164 19.7556ZM125.304 20.1094H125.332L127.284 18.6667C127.368 18.7211 127.452 18.7483 127.535 18.7756V18.8028L125.527 20.2728C125.443 20.2728 125.332 20.1367 125.304 20.1094ZM126.224 20.5178L125.918 20.4089L127.954 18.9117L128.261 19.0206L126.224 20.5178ZM126.531 20.7083L128.456 19.2928H128.484L128.623 19.5378L126.671 20.9533H126.643L126.531 20.7356V20.7083ZM126.922 21.4978L126.81 21.28L128.735 19.8644L128.763 19.8372L128.902 20.0822L126.95 21.4978H126.922ZM127.117 21.7972L129.042 20.4089L129.07 20.3817V20.4089L129.181 20.6267L127.256 22.0422H127.229L127.117 21.8244V21.7972ZM127.508 22.5867L127.396 22.3689L129.321 20.9533H129.349L129.46 21.1711V21.1983L127.535 22.5867L127.508 22.6139V22.5867ZM127.703 22.8861L129.627 21.4978H129.655L129.767 21.7156L127.814 23.1583L127.675 22.9406C127.675 22.9133 127.703 22.8861 127.703 22.8861ZM128.093 23.7028L127.982 23.4578L129.906 22.0422H129.934L130.046 22.26V22.2872L128.121 23.7028H128.093ZM128.261 24.0294L130.213 22.5867C130.241 22.6139 130.269 22.6683 130.269 22.6683L130.353 22.8317L128.4 24.2472C128.344 24.1656 128.261 24.0294 128.261 24.0294ZM128.54 24.5739L130.52 23.1311L130.632 23.3489V23.3761L128.679 24.7917L128.651 24.7372C128.623 24.6828 128.54 24.5739 128.54 24.5739ZM128.846 25.1183L130.799 23.6756L130.827 23.73C130.855 23.7844 130.911 23.9206 130.911 23.9206L128.958 25.3361C128.958 25.3361 128.93 25.2817 128.93 25.2544C128.902 25.2272 128.846 25.1183 128.846 25.1183ZM128.568 26.3706L128.874 25.8533L130.66 24.5194L130.381 25.0639L128.623 26.3706H128.568ZM128.205 27.1056L130.018 25.7717L129.739 26.2889L127.926 27.5956L128.205 27.1056ZM127.563 28.3033L129.349 26.9694L129.07 27.5139L127.284 28.8206L127.563 28.3033ZM133.449 27.8133V27.7861C133.421 27.7861 133.421 27.8133 133.449 27.8133ZM126.113 30.9983L126.252 30.7806L126.754 30.3994V30.7261L124.858 32.1144V31.7878L125.778 31.1072C125.778 31.1072 125.806 31.1072 125.834 31.08L126.113 30.9983ZM126.754 31.1617V31.4883L124.858 32.8767V32.55L126.754 31.1617ZM124.858 33.3122L126.754 31.9239V32.2506L124.858 33.6389V33.3122ZM132.417 33.8294L134.314 32.4411V32.7678L132.417 34.1561V33.8294ZM124.858 34.4011V34.0744L126.727 32.7133C126.754 32.7133 126.782 32.9039 126.782 33.0128L124.858 34.4011ZM132.445 34.5917V34.5644L134.369 33.1489C134.425 33.2306 134.481 33.3122 134.537 33.3667L132.556 34.8094C132.556 34.8367 132.445 34.6189 132.445 34.5917ZM124.969 34.755L126.922 33.3122C126.978 33.3122 127.061 33.3939 127.117 33.4211C127.145 33.4211 127.173 33.4211 127.201 33.4483L125.164 34.9456C125.137 34.9456 124.941 34.755 124.969 34.755ZM125.694 34.9728L127.786 33.4483H128.233L126.141 34.9728H125.694ZM127.173 34.9728H126.727L128.819 33.4483H128.902C129.042 33.4483 129.125 33.4483 129.265 33.4756L127.173 34.9728ZM136.043 34.9728L138.107 33.4756C138.107 33.4756 138.303 33.4483 138.358 33.4483H138.581L136.489 34.9728C136.489 34.9728 136.127 35 136.043 35V34.9728ZM128.205 35L127.759 34.9728L129.851 33.4756H130.297L128.205 35ZM135.457 35H134.983L137.075 33.4756H137.521L135.457 35ZM128.791 35L130.883 33.4756H131.19V33.5844L129.237 35H128.791ZM133.365 35H132.891L134.983 33.4756H135.429L133.365 35ZM133.951 35L136.015 33.4756H136.489L134.397 35H133.951ZM137.075 34.9728L138.693 33.8022V34.1289L137.521 34.9728H137.075ZM130.241 35H129.823L131.19 33.9928V34.2922L130.241 35ZM138.135 34.9728L138.693 34.5644C138.693 34.7822 138.386 34.9728 138.191 34.9728H138.135Z" fill="#FFFFB8"/>
<path d="M5.88165 24.8267V6.72L4.73401 6.39333C4.30365 6.25333 4.06456 5.88 4.06456 5.46V0.886666C4.06456 0.559999 4.4471 0 4.78183 0H18.171C22.9528 0 26.061 2.00667 26.6348 6.81333L26.8261 8.16667L26.9217 10.1733V12.18C26.9217 18.2467 24.9612 22.0267 18.5057 22.0267L12.3849 22.0733V22.8667H13.0066L12.3849 23.2867V24.0333L14.0108 22.8667H14.7759L12.3849 24.5933V24.8267L12.8631 25.0133L15.8279 22.8667H16.5451L13.4848 25.1533C13.8673 25.2933 14.2977 25.62 14.2977 26.1333V30.66C14.2977 31.08 13.9151 31.5933 13.4848 31.5933H4.82965C4.39928 31.5933 4.06456 31.08 4.06456 30.66V26.0867C4.06456 25.7133 4.35147 25.34 4.73401 25.2467L5.88165 24.8267ZM0 4.52667L1.53019 3.40667H2.29528L0 5.08667V4.52667ZM0 5.83333L3.25164 3.40667V4.01333L0 6.39333V5.83333ZM0 7.14L3.25164 4.71333V5.27333L0 7.7V7.14ZM0 8.96V8.44667L3.20383 6.06667C3.29946 6.20667 3.34728 6.39333 3.34728 6.58L0 8.96ZM12.3849 6.95333V8.44667L13.3413 7.74667H14.1064L12.3849 9.00667V9.75333L15.1106 7.74667H15.9235L12.3849 10.3133V15.12H16.3539C16.4017 14.98 16.4017 14.7467 16.4017 14.6533L19.6533 12.2267V12.8333L16.5451 15.12H17.358C17.4059 15.12 17.5493 15.0733 17.5493 15.0733L19.6055 13.58V13.6267C19.6055 13.72 19.6533 14.14 19.5099 14.2333L18.41 15.0267C19.8446 15.0733 20.3228 14.2333 20.3706 12.9267C20.4184 12.32 20.4662 11.76 20.4662 11.2C20.4662 10.4067 20.4184 9.61333 20.3228 8.82C20.1315 7.14 19.0795 6.95333 17.5493 6.95333H12.3849ZM0.239091 9.56667L3.63419 7.04667C3.82546 7.14 4.06456 7.18667 4.16019 7.23333L0.669456 9.8C0.526001 9.8 0.334728 9.66 0.239091 9.56667ZM1.86491 10.1267L1.38673 10.0333L4.87747 7.46667C4.9731 7.46667 5.06874 7.46667 5.11656 7.51333V7.84L1.86491 10.2667V10.1267ZM13.3413 10.36L16.9277 7.74667C17.1668 7.74667 17.4059 7.74667 17.645 7.79333L14.1064 10.36H13.3413ZM14.9671 10.5L18.41 7.93333H18.4579C18.4579 7.93333 18.6013 8.02667 18.6491 8.02667C18.7448 8.07333 18.7926 8.12 18.8882 8.16667L15.4453 10.6867H15.3975C15.3019 10.5933 15.0628 10.5467 14.9671 10.5ZM1.86491 11.5733V10.9667L5.11656 8.58667V9.14667L1.86491 11.5733ZM15.9235 11.06L19.2708 8.63333C19.3186 8.63333 19.462 8.96 19.462 9.05333L19.4142 9.1L16.1148 11.48C16.0191 11.3867 15.9713 11.2467 15.9235 11.06ZM16.2582 12.1333L19.5577 9.75333C19.5577 9.75333 19.6055 10.0333 19.6055 10.22C19.6055 10.2667 19.6055 10.2667 19.5577 10.2667L16.306 12.6467C16.306 12.6467 16.2582 12.32 16.2582 12.1333ZM1.86491 12.2733L5.11656 9.89333V10.4067L1.86491 12.7867V12.2733ZM16.3539 13.3467H16.4017L19.6055 11.0133C19.6533 11.06 19.6533 11.2933 19.6533 11.4333V11.5267L16.4017 13.9067C16.3539 13.72 16.3539 13.6267 16.3539 13.44V13.3467ZM1.86491 13.5333L5.11656 11.1533V11.7133L1.86491 14.0933V13.5333ZM1.86491 15.4V14.84L5.11656 12.46V13.02L1.86491 15.4ZM1.86491 16.7067V16.1467L5.11656 13.7667V14.3267L1.86491 16.7067ZM1.86491 17.4533L5.11656 15.0733V15.6333L1.86491 18.0133V17.4533ZM1.86491 19.32V18.76L5.11656 16.38V16.94L1.86491 19.32ZM1.86491 20.6267V20.0667L5.11656 17.64V18.2467L1.86491 20.6267ZM1.86491 21.3733L5.11656 18.9467V19.5533L1.86491 21.9333V21.3733ZM1.86491 22.68L5.11656 20.2533V20.8133L1.86491 23.24V22.68ZM1.86491 24.5467V23.94L5.11656 21.56V22.12L1.86491 24.5467ZM15.9713 25.34L19.6533 22.68L20.6575 22.4933L16.9755 25.2L15.9713 25.34ZM18.4579 22.7733L14.8715 25.4333H14.0108L17.5493 22.8667C17.645 22.7733 18.3622 22.7733 18.4579 22.7733ZM1.86491 25.2467L5.11656 22.8667V23.4267L1.86491 25.8533V25.2467ZM18.5535 24.7333L20.9444 23.0067C20.9444 23.38 18.9361 24.64 18.5535 24.7333ZM1.86491 26.5533L5.11656 24.1733V24.7333L1.86491 27.16V26.5533ZM1.86491 28.28V27.86L3.29946 26.8333C3.29946 27.02 3.29946 27.3467 3.25164 27.3467L0 29.7267V29.6333C0 29.4933 -8.9407e-08 29.2133 0.0956365 29.1667C0.191273 29.0733 0.717274 28.7 0.908548 28.56L1.86491 28.28ZM0 30.4733L3.25164 28.0933V28.6533L0 31.08V30.4733ZM0 31.78L3.25164 29.4V29.96L0 32.34V31.78ZM0 33.6467V33.0867L3.25164 30.7067V31.2667L0 33.6467ZM0.0478183 34.3467L3.34728 31.9667C3.49074 32.06 3.63419 32.1533 3.72983 32.2467L0.334728 34.72L0.28691 34.7667C0.239091 34.7667 0.0478183 34.44 0.0478183 34.3467ZM1.00418 35L4.54274 32.3867H5.30783L1.76928 35H1.00418ZM2.77346 35L6.31202 32.3867H7.12493L3.53855 35H2.77346ZM4.54274 35L8.12911 32.3867H8.8942L5.30783 35H4.54274ZM7.12493 35H6.35983L9.89839 32.3867H10.2331V32.7133L7.12493 35ZM8.12911 35L10.2331 33.46V34.02L8.8942 35H8.12911Z" fill="#FFFFB8"/>
<path d="M55.5409 29.0656V18.5033L54.8715 18.3128C54.6483 18.2311 54.4809 18.0133 54.4809 17.7956V15.1006C54.4809 14.91 54.6762 14.5833 54.8994 14.5833H60.5618C60.7292 14.5833 60.8966 14.7467 60.9524 14.8828L63.5186 23.3489C63.5465 23.3489 63.5465 23.3217 63.5465 23.3217L65.3875 21.9878C65.3317 22.1511 65.2759 22.3961 65.2759 22.4233L63.6023 23.6211L63.7139 23.9478H63.7418L65.0807 22.9678C65.0807 23.0767 64.997 23.2672 64.9691 23.3489L63.8254 24.1928C63.7975 24.22 63.7975 24.22 63.7975 24.2472C63.8254 24.3561 63.8812 24.5467 63.8812 24.5467L63.9091 24.5739L64.8296 23.8933L64.6902 24.3289L63.9928 24.8189V24.8733L64.0765 25.1728C64.1602 25.1456 64.4391 24.955 64.5228 24.8733C64.5228 24.9278 64.4391 25.2 64.4112 25.3089L64.1881 25.4722V25.5267L64.4391 26.2889L67.7864 14.9644C67.8422 14.8011 67.9817 14.5833 68.1769 14.5833H73.951C74.1741 14.5833 74.3694 14.8828 74.3694 15.0733V17.7956C74.3694 18.0406 74.202 18.2311 73.9789 18.3128L73.2815 18.5033V29.0656L73.9789 29.3106C74.202 29.365 74.3694 29.5556 74.3694 29.7733V32.4956C74.3694 32.7133 74.1462 33.0128 73.9231 33.0128H68.9021C68.6232 33.0128 68.428 32.6589 68.428 32.4139V29.7733C68.149 29.7733 68.0095 30.0456 67.9816 30.2633L67.2006 30.835V30.59C67.2006 30.59 67.2006 30.5356 67.2285 30.5356L68.4558 29.61C68.4837 29.61 68.5953 29.4194 68.6511 29.3922C68.6511 29.365 69.0695 29.1744 69.1253 29.1472V29.2017L69.5716 29.0656L69.7111 21.1983L69.1253 23.0494C69.1532 23.0494 69.209 22.995 69.209 22.995C69.209 23.0494 69.2369 23.24 69.209 23.3217C69.1532 23.3761 69.0137 23.4578 68.9858 23.5122L68.8185 24.0294C68.9021 23.975 69.1532 23.8117 69.209 23.7572V24.0839L68.679 24.4922L68.5116 25.0367L69.209 24.5194V24.6283C69.209 24.6283 69.1811 24.8461 69.1811 24.8733L68.4001 25.445C68.3722 25.445 68.3722 25.4722 68.3722 25.4722L68.2048 26.0167L69.1811 25.3089V25.6356L68.0653 26.4522L67.898 26.9967L69.1811 26.0711V26.1256C69.1811 26.18 69.1811 26.3978 69.1532 26.3978L67.7864 27.405L67.7585 27.4322L67.5911 27.9767L69.1532 26.8333V27.1872L67.4517 28.4122L67.2843 28.9567L69.1532 27.5956V27.9494L67.2285 29.3106V29.1472L66.5869 31.2433V31.2706C66.5869 31.2433 66.6148 31.2433 66.6427 31.2433C66.6148 31.2706 66.5591 31.2978 66.5591 31.325L66.3917 31.8422L67.9816 30.6989V31.0528L66.2801 32.2778C66.1685 32.5772 66.057 33.0128 65.6943 33.0128H63.156C62.9886 33.0128 62.7934 32.8767 62.7655 32.7133L59.195 21.4161V21.6611C59.195 21.9061 59.2229 23.0494 59.2229 23.2944C59.2229 23.3761 59.2229 23.4033 59.2508 23.4578C59.2508 23.485 59.3066 23.6483 59.3066 23.7028C59.3066 23.7028 59.2508 23.73 59.2508 23.7572V24.1656C59.3066 24.1383 59.3903 24.0567 59.4182 24.0567L59.5019 24.3017C59.5019 24.3289 59.5019 24.3289 59.474 24.3289L59.2508 24.4922V24.9278C59.3903 24.8733 59.5019 24.7644 59.6134 24.6556V24.6828C59.6134 24.6828 59.6692 24.8461 59.6971 24.955L59.2787 25.2544V25.6628L59.8087 25.2817L59.8924 25.5539L59.2787 26.0167V26.425L60.004 25.9078L60.0876 26.1528V26.18L59.3066 26.7517V27.16L60.1992 26.5339C60.1992 26.5339 60.255 26.67 60.2829 26.7789L59.3066 27.4867V27.8406L59.3345 27.895L60.3945 27.1328L60.4782 27.3778C60.4782 27.405 60.4782 27.405 60.4503 27.405L59.3345 28.2217V28.6572L60.5897 27.7317L60.6734 28.0039L60.6455 28.0311L59.3345 28.9839V29.0656L59.6413 29.1744L60.7292 28.385C60.7571 28.385 60.7571 28.3578 60.785 28.3578V28.385C60.785 28.385 60.8408 28.5211 60.8687 28.63L59.9761 29.2833C60.0876 29.3378 60.1992 29.3378 60.2829 29.4739H60.3108L60.9524 29.0111L60.9802 28.9839L61.0639 29.2289C61.0639 29.2561 61.036 29.2561 61.036 29.2561L60.4503 29.6917L60.4224 29.7189C60.4224 29.855 60.4503 29.9911 60.4503 30.1272L61.1755 29.61L61.2592 29.855L60.4503 30.4539V30.8894L61.3708 30.2089L61.4544 30.4811L61.4266 30.5083L60.4503 31.2161V31.6244H60.4782L61.566 30.835L61.6497 31.1072L60.4503 31.9783V32.4139L61.7613 31.4611C61.7613 31.4611 61.8171 31.6244 61.845 31.7333L59.9482 33.0944V33.0128H54.9272C54.7041 33.0128 54.4809 32.6861 54.4809 32.4683V29.8006C54.4809 29.5828 54.6483 29.365 54.8436 29.3106L55.5409 29.0656ZM52.11 17.5506V17.2239L53.0026 16.5706H53.4768L52.11 17.5506ZM65.4154 16.9789C65.4154 16.7339 65.7222 16.5706 65.9733 16.5706V16.5978C65.9733 16.5978 65.6107 16.8428 65.4154 16.9789ZM66.9775 16.5978L65.1365 17.9317C65.1365 17.8772 65.2201 17.5506 65.2759 17.5233L66.5869 16.5706H67.0054C67.0054 16.5978 66.9775 16.5978 66.9775 16.5978ZM52.11 18.3128V17.9861L53.9789 16.625C54.0067 16.625 54.0067 16.5978 54.0067 16.5978V16.9244L52.11 18.3128ZM64.9691 18.5033L66.838 17.1422L66.6985 17.5506L64.8296 18.9117L64.9691 18.5033ZM52.11 18.7483L54.0067 17.36V17.6867L52.11 19.075V18.7483ZM52.11 19.5106L54.0067 18.1222C54.0346 18.2039 54.0625 18.3128 54.0625 18.4217C54.0625 18.4217 54.0346 18.4217 54.0346 18.4489L52.11 19.8372V19.5106ZM64.6902 19.4561L66.5591 18.1222L66.4196 18.5306L64.5507 19.8917C64.5507 19.81 64.6344 19.4833 64.6902 19.4561ZM52.2494 20.1639L54.2299 18.7211C54.3694 18.7483 54.4531 18.7756 54.5646 18.8028L52.5284 20.3C52.4168 20.3 52.3052 20.2183 52.2494 20.1639ZM53.1978 20.4906L52.9468 20.4089L54.983 18.9389C55.0388 18.9389 55.0946 18.9661 55.0946 18.9661V19.1839L53.1978 20.5722V20.4906ZM64.3833 20.4361L66.2243 19.1022H66.2522C66.2522 19.1567 66.1685 19.4833 66.1127 19.5106L64.2717 20.8717L64.3833 20.4361ZM53.1978 21.0078L55.0946 19.6194V19.9461L53.1978 21.3344V21.0078ZM64.1044 21.4161L65.9454 20.055H65.9733L65.8338 20.4633L63.9928 21.8244C64.0207 21.6611 64.1044 21.4161 64.1044 21.4161ZM53.1978 21.77L55.0946 20.3817V20.7083L53.1978 22.0967V21.77ZM63.686 22.8044L63.7975 22.3689L65.6385 21.0622C65.6385 21.035 65.6664 21.035 65.6664 21.035C65.6664 21.0894 65.5828 21.4161 65.527 21.4706L63.686 22.8044ZM53.1978 22.8317V22.5322L55.0946 21.1439V21.4433L53.1978 22.8317ZM53.1978 23.5939V23.24L55.0667 21.8789H55.0946V22.2056L53.1978 23.5939ZM53.1978 24.0022L55.0946 22.6139V22.9678L53.1978 24.3561V24.0022ZM53.1978 25.0911V24.7644L55.0946 23.3761V23.73L53.1978 25.0911ZM68.8185 24.0567V24.0294C68.7906 24.0294 68.7906 24.0567 68.8185 24.0567ZM53.1978 25.8533V25.5267L55.0946 24.1383V24.465L53.2257 25.8261C53.2257 25.8533 53.1978 25.8533 53.1978 25.8533ZM53.1978 26.2889L55.0946 24.9006V25.2272L53.1978 26.6156V26.2889ZM53.1978 27.3778V27.0511L55.0946 25.6628V25.9894L53.1978 27.3778ZM53.1978 28.14V27.8133L55.0946 26.425V26.7517L53.1978 28.14ZM53.1978 28.5756L55.0946 27.1872V27.5139L53.1978 28.9022V28.5756ZM53.1978 29.3378L55.0946 27.9494V28.2761L53.1978 29.6644V29.3378ZM67.2285 29.7733L69.1253 28.385V28.7117L67.2285 30.1V29.7733ZM53.1978 30.4267V30.1L55.0667 28.7389L55.0946 28.7117V29.0383L53.1978 30.4267ZM53.1978 30.8622L54.0067 30.2361V30.59L52.11 31.9783V31.8694C52.11 31.7878 52.11 31.7061 52.1379 31.5972C52.2215 31.5428 52.5284 31.325 52.612 31.2706C52.612 31.2706 52.6399 31.2433 52.6678 31.2433L53.1978 31.08V30.8622ZM52.11 32.7133V32.3867L53.9789 31.0256H54.0067V31.325L52.11 32.7133ZM66.057 32.8494L67.9816 31.4611V31.815L66.057 33.2033V32.8494ZM52.11 33.1489L54.0067 31.7606V32.0872L52.11 33.4756V33.1489ZM66.3917 31.8694V31.8422C66.3638 31.8422 66.3638 31.8694 66.3917 31.8694ZM60.0319 33.4756L61.9565 32.06L62.0402 32.3322L60.0876 33.7478L60.004 33.5028C60.004 33.4756 60.004 33.4756 60.0319 33.4756ZM66.057 33.9656V33.6117L67.9816 32.2233V32.5772L66.057 33.9656ZM52.11 33.8839L54.0067 32.4956V32.8494L52.11 34.2378V33.8839ZM60.1992 34.1017L62.1518 32.6861L62.2355 32.9583L60.3108 34.3739H60.2829L60.1992 34.1017ZM66.057 34.3739L67.9816 32.9856C68.0095 33.04 68.0932 33.2306 68.0653 33.2578L66.1127 34.6733C66.057 34.5917 66.057 34.4828 66.057 34.3739ZM52.1379 34.6461C52.1379 34.6189 52.1378 34.6189 52.1657 34.6189L54.0625 33.2306C54.1183 33.2306 54.2578 33.3667 54.2857 33.3939L52.3052 34.8367C52.3052 34.8639 52.2773 34.8639 52.2773 34.8639C52.2494 34.8639 52.1379 34.6733 52.1379 34.6461ZM60.3945 34.7278L62.3471 33.3122C62.4307 33.3667 62.4865 33.4211 62.5702 33.4756L60.5618 34.9183C60.5339 34.9456 60.3666 34.7278 60.3945 34.7278ZM66.3359 34.9456L68.3443 33.4756C68.3722 33.4756 68.3722 33.4483 68.3722 33.4483C68.5116 33.4483 68.679 33.4756 68.7906 33.4756L66.7264 35H66.5033C66.4475 35 66.3917 34.9728 66.3359 34.9456ZM53.142 35H52.6957L54.7878 33.4756H55.2341L53.142 35ZM54.202 35H53.7278L55.8199 33.4756H56.2941L54.202 35ZM54.7878 35L56.8798 33.4756H57.3261L55.2341 35H54.7878ZM55.8478 35L57.9119 33.4756H58.0514V33.7206L56.2941 35H55.8478ZM61.4823 35H61.0639L63.156 33.4756H63.5744L61.4823 35ZM67.7585 35H67.3122L69.4042 33.4756H69.8505L67.7585 35ZM68.8185 35H68.3443L70.4084 33.5028L70.4363 33.4756H70.9105L68.8185 35ZM69.4042 35L71.4963 33.4756H71.9426L69.8505 35H69.4042ZM62.5423 35H62.0681L64.1044 33.5028L63.9928 33.9383L62.5423 35ZM70.4363 35L71.9984 33.8567V34.2106L70.9105 35H70.4363ZM57.3261 35H56.8798L58.0514 34.1289V34.4556L57.3819 34.9728C57.354 35 57.3261 35 57.3261 35ZM63.3512 35H63.1281L63.7975 34.51C63.7975 34.7006 63.5744 35 63.3512 35ZM71.4963 35L71.9426 34.6733C71.9426 34.8367 71.6637 35 71.4963 35Z" fill="#FFFFB8"/>
<path d="M77.8003 29.0656V18.5033L77.0751 18.2583C76.8798 18.2039 76.7404 17.9589 76.7404 17.7683V15.1278C76.7404 14.9372 76.9356 14.5833 77.1588 14.5833H88.2327C88.4558 14.5833 88.6511 14.8828 88.6511 15.0733V19.4289C88.6511 19.6194 88.4279 19.9189 88.2327 19.9189H86.0012C85.778 19.9189 85.6106 19.6467 85.5828 19.4833L85.3875 18.6394H81.5939V19.1022H82.0123L81.5939 19.4017V19.8372L82.5981 19.1022H83.0444L81.5939 20.1639V20.5994L83.6302 19.1022H84.1044L82.0123 20.6267H81.5939V21.6883H83.2955L83.2676 21.6611L83.2955 21.6339L85.248 20.2183C85.3038 20.2728 85.3875 20.3272 85.4712 20.3817L83.686 21.6883H84.2717L86.0291 20.4089H86.2801V20.545L84.718 21.6883H85.0249C85.0807 21.6883 85.1365 21.7428 85.2201 21.7428L86.2801 20.9806V21.3072L85.4433 21.9333H85.3596C85.3875 22.015 85.4433 22.0967 85.4433 22.2056V25.1183C85.4433 25.3906 85.2201 25.6356 84.9412 25.6356H81.5939V26.0983H81.7613C81.7334 26.1256 81.6218 26.2072 81.5939 26.2344V26.6428L82.3471 26.0983H82.7934L81.5939 26.9967V27.405L83.0723 26.3433V26.67L81.7613 27.6228H81.5939V28.9567H85.4433L85.6664 28.0583C85.6943 27.895 85.8617 27.65 86.0849 27.65H88.2606C88.4837 27.65 88.7069 27.9494 88.7069 28.1672V32.5228C88.7069 32.7133 88.4837 33.0128 88.2606 33.0128H77.1867C76.9635 33.0128 76.7404 32.6861 76.7404 32.4683V29.7461C76.6009 29.8006 76.4614 29.855 76.3777 29.9911C76.3498 30.0183 76.3498 30.0728 76.3219 30.1L75.4572 30.7261V30.3994L77.354 29.0111V29.2289C77.4098 29.2017 77.7167 29.12 77.8003 29.0656ZM74.8157 16.5706H75.1225L74.3694 17.115C74.3694 16.8972 74.5646 16.5706 74.8157 16.5706ZM74.3694 17.8772V17.5506L75.7083 16.5706H76.1546L74.3694 17.8772ZM74.3694 18.3128L76.2662 16.8972V17.2511L74.3694 18.6394V18.3128ZM74.3694 19.4017V19.075L76.2383 17.6867H76.2662V18.0133L74.3694 19.4017ZM74.3694 19.81L76.2941 18.4217C76.3777 18.5033 76.4056 18.5578 76.4614 18.6394L74.4809 20.055C74.4531 20.055 74.3694 19.8644 74.3694 19.81ZM75.0946 20.3817L74.7878 20.2728L76.7962 18.8028H76.824L77.1309 18.8844L75.0946 20.3817ZM82.5981 20.6267L84.6901 19.1022H84.9133C84.9412 19.1294 84.9412 19.1839 84.9412 19.2383L83.0444 20.6267H82.5981ZM75.4572 20.8989V20.545L77.354 19.1567V19.4833L75.4572 20.8989ZM83.156 21.3072L83.1002 21.0078L85.0249 19.6194L85.0528 19.5922L85.1086 19.8917L83.156 21.3072ZM75.4572 21.3072L77.354 19.9189V20.2183L75.4572 21.6067V21.3072ZM75.4572 22.0422L77.354 20.6539V20.9806L75.4572 22.3689V22.0422ZM75.4572 23.1311V22.8044L77.354 21.4161V21.7428L75.4572 23.1311ZM75.4572 23.8933V23.5667L77.354 22.1783V22.505L75.4572 23.8933ZM75.4572 24.3289L77.354 22.9406V23.2672L75.4572 24.6556V24.3289ZM75.4572 25.4178V25.0911L77.354 23.7028V24.0294L75.4572 25.4178ZM75.4572 26.18V25.8533L77.354 24.465V24.7917L75.4572 26.18ZM75.4572 26.6156L77.354 25.2V25.5539L75.4572 26.9422V26.6156ZM75.4572 27.3778L77.354 25.9622V26.3161L75.4572 27.7044V27.3778ZM75.4572 28.4667V28.14L77.354 26.7244V27.0783L75.4572 28.4667ZM82.6539 27.6228H82.3471L83.0723 27.1056C83.0723 27.3233 82.9049 27.6228 82.6539 27.6228ZM75.4572 28.9022L77.354 27.4867V27.8133L75.4572 29.2289V28.9022ZM75.4572 29.6372L77.354 28.2489V28.5756L75.4572 29.9911V29.6372ZM76.2662 30.5356V30.8622L74.3694 32.2778V31.9511L76.2662 30.5356ZM74.3694 32.7133L76.2662 31.2978V31.6244L74.3694 33.04V32.7133ZM74.3694 33.8022V33.4483L76.2662 32.06V32.3867L74.3694 33.8022ZM74.3694 34.2106L76.2662 32.8222C76.2941 32.9311 76.3219 33.0128 76.3219 33.1217L76.2941 33.1489L74.3973 34.51L74.3694 34.5372V34.2106ZM74.5367 34.8639L76.5172 33.4211C76.6567 33.4756 76.7404 33.4756 76.8798 33.4756L74.8157 35C74.7041 35 74.5925 34.9183 74.5367 34.8639ZM75.4015 35L77.4656 33.4756H77.9119L75.8478 35H75.4015ZM76.8798 35H76.4335L78.4977 33.4756H78.9719L76.8798 35ZM77.9119 35H77.4656L79.5019 33.5028C79.5298 33.4756 79.5576 33.4756 79.5576 33.4756H80.004L77.9119 35ZM78.4977 35L80.5897 33.4756H81.036L78.9998 34.9728L78.9719 35H78.4977ZM79.5576 35L81.6218 33.4756H82.0681L80.004 35H79.5576ZM81.036 35H80.5897L82.6539 33.4756H83.1281L81.036 35ZM81.6218 35L83.7139 33.4756H84.1044L82.0402 35H81.6218ZM83.0723 35H82.626L84.6901 33.4756H85.1644L83.0723 35ZM83.6581 35L85.7501 33.4756H86.1964L84.1323 35H83.6581ZM84.718 35L86.3359 33.8022V34.1289L85.1644 35H84.718ZM85.7501 35L86.3359 34.5917C86.3359 34.8094 86.057 35 85.8338 35H85.7501Z" fill="#FFFFB8"/>
<path d="M92.1379 29.0656V18.5033L91.4127 18.2583C91.2453 18.2039 91.078 17.9589 91.078 17.7683V15.1278C91.078 14.9372 91.3011 14.5833 91.5243 14.5833H102.208C102.431 14.5833 102.654 14.8828 102.654 15.0733V19.4289C102.654 19.6194 102.431 19.9189 102.208 19.9189H100.004C99.8088 19.9189 99.6135 19.7011 99.5856 19.5378L99.3904 18.6394H95.9315V19.1022H96.2105L95.9315 19.2928V19.7283L96.7962 19.1022H97.2425L95.9315 20.055V20.4906L97.8283 19.1022H98.2746L96.2105 20.6267H95.9315V21.9606H99.0278C99.2509 22.0422 99.4741 22.2328 99.4741 22.505V25.3906C99.4741 25.6356 99.223 25.9078 98.972 25.9078H95.9315V26.5611C95.9873 26.5339 96.1547 26.3978 96.2105 26.3706H96.6289L95.9315 26.8878V27.2961L97.1031 26.4522V26.7789L95.9315 27.65V29.0656L96.6289 29.3106C96.852 29.3922 97.0194 29.5828 97.0194 29.855V32.4683C97.0194 32.6861 96.7962 33.0128 96.5452 33.0128H91.5243C91.3011 33.0128 91.078 32.7133 91.078 32.4683V29.8006C91.078 29.8006 91.1059 29.7189 91.1059 29.6917L89.7949 30.6444V30.2906L91.6916 28.9022V29.2289L92.1379 29.0656ZM89.2928 16.5706L88.7349 16.9789C88.7349 16.7339 89.0696 16.5706 89.2928 16.5706ZM88.707 17.4417L89.8785 16.5706H90.3527L88.707 17.7683V17.4417ZM88.707 18.2039L90.6317 16.7883V17.1422L88.707 18.5306V18.2039ZM88.707 19.2928V18.9661L90.5759 17.5778H90.6317V17.9044L88.707 19.2928ZM88.707 19.7283L90.6317 18.3128C90.6596 18.3944 90.6875 18.4761 90.7432 18.5578L88.7907 20.0006C88.7349 19.9189 88.707 19.8372 88.707 19.7283ZM89.3485 20.3544L89.0138 20.2456L91.0222 18.8028L91.078 18.7756L91.3569 18.8572L89.3485 20.3544ZM89.7949 20.4906H89.7391L91.6916 19.0478V19.3744L89.7949 20.79V20.4906ZM96.7962 20.6267V20.5994L98.8604 19.1022H98.9441L98.972 19.32V19.3744L97.0473 20.7628L97.0194 20.6267H96.7962ZM97.1589 21.1167L99.0556 19.7283C99.0835 19.7828 99.1114 19.9461 99.1114 20.0006L97.1868 21.4161L97.131 21.1439C97.131 21.1167 97.131 21.1167 97.1589 21.1167ZM89.7949 21.5522V21.1983L91.6916 19.81V20.1367L89.7949 21.5522ZM97.3262 21.7428H97.3541L99.3067 20.3C99.4183 20.3544 99.502 20.4089 99.6135 20.4089L97.5494 21.9061L97.4936 21.8789C97.4378 21.8517 97.3262 21.7972 97.3262 21.7428ZM98.5815 21.9333H98.1352L100.199 20.4089C100.227 20.3817 100.227 20.3817 100.283 20.3817V20.6811L98.5815 21.9333ZM89.7949 21.9606L91.6916 20.5722V20.8717L89.7949 22.26V21.9606ZM99.6135 21.9333H99.1672L100.283 21.1167V21.4161C100.283 21.4433 100.283 21.4433 100.255 21.4706L99.6135 21.9333ZM89.7949 23.0222V22.6956L91.6916 21.3072V21.6339L89.7949 23.0222ZM89.7949 23.7844V23.4578L91.6916 22.0694V22.3961L89.7949 23.7844ZM89.7949 24.22L91.6916 22.8317V23.1583L89.7949 24.5467V24.22ZM89.7949 24.9822L91.6916 23.5939V23.9206L89.7949 25.3089V24.9822ZM89.7949 26.0711V25.7444L91.6916 24.3561V24.6828L89.7949 26.0711ZM89.7949 26.5067L91.6916 25.1183V25.445L89.7949 26.8333V26.5067ZM89.7949 27.2689L91.6916 25.8533V26.2072L89.7949 27.5956V27.2689ZM89.7949 28.3578V28.0311L91.6916 26.6156V26.9422L89.7949 28.3578ZM96.1826 27.895L97.1031 27.2144C97.1031 27.2961 97.1031 27.5683 97.0194 27.5956C96.9636 27.65 96.7126 27.8406 96.6289 27.895H96.1826ZM89.7949 28.7933L91.6916 27.3778V27.7044L89.7949 29.12V28.7933ZM89.7949 29.5556L91.6916 28.14V28.4667L89.7949 29.8822V29.5556ZM88.707 32.1689V31.8422L90.6317 30.4539V30.7533L88.707 32.1689ZM88.707 32.5772L90.6317 31.1889V31.5156L88.707 32.9311V32.5772ZM88.707 33.6933V33.3394L90.5759 31.9783C90.6038 31.9783 90.6038 31.9511 90.6317 31.9511V32.2778L88.707 33.6933ZM88.707 34.1017L90.6038 32.7133H90.6317C90.6317 32.795 90.6317 32.9311 90.6038 33.04L88.707 34.4556V34.1017ZM88.8186 34.7822L90.7711 33.3667C90.9106 33.4211 90.9664 33.4483 91.078 33.4756L89.0417 34.9728C89.0138 34.9728 88.8186 34.7822 88.8186 34.7822ZM90.0459 35H89.5717L91.6637 33.4756H92.11L90.0459 35ZM91.078 35H90.6317L92.6958 33.4756H93.1421L91.078 35ZM91.6637 35L93.7279 33.4756H94.1742L92.11 35H91.6637ZM92.6958 35L94.6484 33.5844V33.9111L93.1421 35H92.6958ZM93.7558 35L94.6205 34.3467H94.6484C94.6484 34.4828 94.6484 34.6733 94.5368 34.755C94.481 34.7822 94.2579 34.9456 94.2021 35H93.7558Z" fill="#FFFFB8"/>
<path d="M106.085 29.0656V18.5033L105.415 18.3128C105.192 18.2311 105.025 18.0133 105.025 17.7956V15.1006C105.025 14.91 105.22 14.5833 105.443 14.5833H110.548C110.799 14.5833 110.994 14.91 110.994 15.1278V17.7139C110.994 18.34 110.381 18.3672 109.906 18.5033H109.878V28.9567H113.282L113.505 28.0583C113.533 27.895 113.728 27.65 113.923 27.65H116.099C116.322 27.65 116.545 27.9494 116.545 28.1672V32.5228C116.545 32.7133 116.322 33.0128 116.099 33.0128H105.471C105.248 33.0128 105.025 32.6861 105.025 32.4683V29.8006C105.025 29.5828 105.192 29.365 105.388 29.3106L106.085 29.0656ZM102.654 17.2239L103.547 16.5706H103.993L102.654 17.5506V17.2239ZM102.654 18.3128V17.9861L104.523 16.5978H104.551V16.8972L102.654 18.3128ZM102.654 18.7483L104.551 17.3328V17.6594L102.654 19.075V18.7483ZM102.654 19.4833L104.551 18.1222V18.095C104.579 18.2039 104.579 18.3128 104.607 18.3944L102.654 19.81V19.4833ZM102.793 20.1639L104.802 18.6939C104.885 18.7483 104.969 18.7756 105.081 18.8028L103.044 20.3C102.961 20.3 102.849 20.2183 102.793 20.1639ZM103.742 20.4906L103.463 20.4089L105.499 18.9389C105.527 18.9389 105.639 18.9661 105.639 18.9661V19.1567L103.742 20.545V20.4906ZM103.742 20.9806L105.639 19.5922V19.8917L103.742 21.28V20.9806ZM103.742 22.0422V21.7156L105.639 20.3272V20.6539L103.742 22.0422ZM103.742 22.4778L105.639 21.0894V21.4161L103.742 22.8044V22.4778ZM103.742 23.24L105.639 21.8517V22.1783L103.742 23.5667V23.24ZM103.742 24.3289V24.0022L105.639 22.6139V22.9406L103.742 24.3289ZM103.742 25.0911V24.7644L105.639 23.3761V23.7028L103.742 25.0911ZM103.742 25.5267L105.639 24.1111V24.465L103.742 25.8533V25.5267ZM103.742 26.6156V26.2889L105.639 24.8733V25.2272L103.742 26.6156ZM103.742 27.3778V27.0511L105.639 25.6356V25.9622L103.742 27.3778ZM103.742 27.8133L105.639 26.3978V26.7244L103.742 28.14V27.8133ZM103.742 28.5483L105.639 27.16V27.4867L103.742 28.9022V28.5483ZM103.742 29.6644V29.3106L105.639 27.9222V28.2489L103.742 29.6644ZM103.742 30.0728L105.639 28.6844V28.9839L103.742 30.3994V30.0728ZM103.742 31.08V30.835L104.579 30.2089C104.579 30.345 104.579 30.5356 104.551 30.5356L102.654 31.9511V31.8694C102.654 31.7606 102.654 31.6244 102.738 31.5428L103.128 31.2706L103.742 31.08ZM102.654 32.7133V32.3594L104.551 30.9711V31.2978L102.654 32.7133ZM104.551 31.7333V32.06L102.654 33.4483V33.1217L104.551 31.7333ZM102.654 33.8839L104.551 32.4956V32.8222L102.654 34.2106V33.8839ZM102.682 34.6189L104.607 33.2033H104.634C104.69 33.285 104.746 33.3394 104.83 33.3939L102.821 34.8639C102.793 34.8367 102.682 34.6461 102.682 34.6189ZM103.212 35L105.304 33.4756H105.75L103.686 35H103.212ZM104.718 35H104.272L106.336 33.4756H106.782L104.718 35ZM105.304 35L107.368 33.4756H107.842L105.75 35H105.304ZM106.336 35L108.428 33.4756H108.874L106.81 35H106.336ZM107.396 35L109.46 33.4756H109.906L107.842 35H107.396ZM108.874 35H108.428L110.492 33.4756H110.966L108.874 35ZM109.46 35L111.552 33.4756H111.943L109.878 35H109.46ZM110.464 35L112.528 33.4756H113.003L110.911 35H110.464ZM111.496 35L113.588 33.4756H114.035L111.971 35H111.496ZM113.003 35H112.556L114.174 33.8022V34.1289L113.003 35ZM113.588 35L114.174 34.5644C114.174 34.8094 113.895 35 113.672 35H113.588Z" fill="#FFFFB8"/>
<path d="M148.44 24.8733V6.76667L147.34 6.48667C146.91 6.34667 146.623 5.97333 146.623 5.55333V0.886666C146.623 0.559999 146.958 0 147.34 0H161.399C168.619 0 171.201 4.94667 171.201 11.1067V20.2067L171.058 22.26C170.675 27.6267 167.519 31.5933 161.829 31.5933H147.388C146.958 31.5933 146.623 31.08 146.623 30.7067V26.04C146.097 26.04 145.858 26.6 145.858 27.02L144.423 28.0467V27.4867L146.671 25.8533C146.719 25.8067 146.766 25.62 146.814 25.5733C147.005 25.2933 147.292 25.2467 147.627 25.1533C147.675 25.1067 147.675 25.1067 147.723 25.1067L148.44 24.8733ZM144.328 3.40667L142.558 4.71333V4.24667C142.558 4.2 142.558 4.10667 142.606 4.06L143.562 3.40667H144.328ZM142.558 5.41333L145.332 3.40667H145.858V3.59333L142.558 6.02V5.41333ZM142.558 6.72L145.858 4.34V4.9L142.558 7.32667V6.72ZM142.558 8.58667V8.02667L145.762 5.69333C145.81 5.69333 145.81 5.64667 145.858 5.64667V6.20667L142.558 8.58667ZM142.606 9.28667L146.001 6.86C146.097 7 146.193 7.04667 146.288 7.18667L142.893 9.66C142.893 9.66 142.797 9.61333 142.75 9.56667C142.702 9.52 142.606 9.38 142.606 9.28667ZM154.943 6.95333L154.991 8.02667C155.039 7.98 155.278 7.79333 155.374 7.74667H156.139L154.943 8.63333V9.33333L157.143 7.74667H157.956L154.943 9.94V24.64H160.777L163.694 22.4933V22.54C163.694 22.5867 163.503 23.1467 163.503 23.1933L161.542 24.64C164.124 24.64 164.746 21.42 164.746 19.4133V11.4333C164.746 8.35333 164.172 6.95333 160.777 6.95333H154.943ZM144.041 10.08L143.515 9.94L147.005 7.42H147.053L147.579 7.56L144.136 10.08H144.041ZM155.374 10.36L158.96 7.74667H159.725L156.139 10.36H155.374ZM157.143 10.36L160.634 7.79333C160.681 7.74667 160.681 7.74667 160.729 7.74667C160.777 7.74667 160.873 7.79333 160.921 7.79333C161.064 7.79333 161.351 7.84 161.351 7.84L157.86 10.4067C157.717 10.4067 157.239 10.36 157.143 10.36ZM158.673 10.5467L162.116 8.02667C162.212 8.02667 162.546 8.16667 162.594 8.21333L159.199 10.7333C159.103 10.7333 158.673 10.5467 158.673 10.5467ZM144.423 11.1533V10.5933L147.675 8.21333V8.77333L144.423 11.1533ZM159.725 11.1067V11.06L163.12 8.63333C163.216 8.72667 163.311 8.86667 163.359 9.00667L160.012 11.4333C159.964 11.4333 159.869 11.2933 159.869 11.2933C159.869 11.2467 159.725 11.1533 159.725 11.1067ZM144.423 11.9L147.675 9.52V10.08L144.423 12.46V11.9ZM160.299 11.9933L163.598 9.56667L163.646 9.66C163.646 9.70667 163.694 9.94 163.694 10.0333L160.442 12.4133L160.395 12.46L160.251 12.04C160.251 11.9933 160.251 11.9933 160.299 11.9933ZM160.586 13.58L160.538 13.1133L163.837 10.6867C163.837 10.6867 163.885 11.0133 163.885 11.2L160.634 13.58L160.586 13.6267V13.58ZM144.423 13.2067L147.675 10.8267V11.3867L144.423 13.7667V13.2067ZM160.681 14.3267L163.981 11.9V12.46L160.729 14.84C160.681 14.6533 160.681 14.5133 160.681 14.3267ZM144.423 15.0267V14.5133L147.675 12.1333V12.6467L144.423 15.0267ZM160.681 16.1467V15.5867L163.981 13.2067V13.7667L160.681 16.1467ZM144.423 16.3333V15.7733L147.675 13.3467V13.9533L144.423 16.3333ZM160.681 16.8933L163.981 14.5133V15.0733L160.681 17.4533V16.8933ZM144.423 17.08L147.675 14.6533V15.26L144.423 17.64V17.08ZM160.681 18.2L163.981 15.82V16.3333L160.681 18.7133V18.2ZM144.423 18.9467V18.3867L147.675 15.96V16.52L144.423 18.9467ZM160.681 19.46L163.981 17.08V17.64L160.681 20.02V19.46ZM144.423 20.2533V19.6933L147.675 17.2667V17.8267L144.423 20.2533ZM160.681 20.7667L163.981 18.3867V18.9467L160.681 21.3267V20.7667ZM144.423 20.9533L147.675 18.5733V19.1333L144.423 21.56V20.9533ZM160.681 22.6333V22.0733L163.981 19.6933V20.2067C163.981 20.2533 163.933 20.2533 163.933 20.2533L160.681 22.6333ZM144.423 22.8667V22.26L147.675 19.88V20.44L144.423 22.8667ZM160.634 23.38L163.885 21.0467H163.933C163.885 21.2333 163.885 21.6067 163.885 21.6067L160.586 23.9867C160.586 23.8933 160.634 23.5667 160.634 23.52V23.38ZM144.423 24.1267V23.5667L147.675 21.1867V21.7467L144.423 24.1267ZM144.423 24.8733L147.675 22.4933V23.0533L144.423 25.4333V24.8733ZM144.423 26.18L147.675 23.8V24.36L144.423 26.74V26.18ZM142.558 30.7067V30.1467L145.858 27.7667V28.3267L142.558 30.7067ZM143.849 28.4667L142.558 29.4C142.558 28.8867 143.371 28.4667 143.849 28.4667ZM142.558 31.4533L145.858 29.0733V29.5867L142.558 31.9667V31.4533ZM142.558 33.2733V32.7133L145.858 30.3333V30.8933L142.558 33.2733ZM142.558 34.02L145.81 31.64C145.906 31.7333 145.906 31.78 145.953 31.92L146.049 32.06L142.702 34.4867C142.606 34.4867 142.558 34.1133 142.558 34.02ZM159.247 34.86H159.199L162.833 32.2467C162.929 32.2 163.072 32.1533 163.12 32.1533C163.216 32.1533 163.694 32.06 163.79 32.0133H163.837L160.155 34.72C160.06 34.7667 159.343 34.86 159.247 34.86ZM161.925 34.16L164.459 32.2933C164.029 32.9467 162.642 33.88 161.925 34.16ZM158.051 35H157.286L160.825 32.4333C160.968 32.34 161.16 32.34 161.303 32.34H161.638L158.099 34.9533L158.051 35ZM143.084 34.9533L146.575 32.3867H147.34L143.802 35H143.276C143.228 35 143.132 34.9533 143.084 34.9533ZM144.806 35L148.344 32.3867H149.157L145.571 35H144.806ZM147.34 35H146.575L150.161 32.3867H150.927L147.34 35ZM148.392 35L151.931 32.3867H152.696L149.157 35H148.392ZM150.161 35L153.7 32.3867H154.465L150.927 35H150.161ZM152.696 35H151.931L155.517 32.3867H156.282L152.696 35ZM154.513 35H153.7L157.286 32.3867H158.051L154.513 35ZM155.517 35L159.056 32.3867H159.821L156.282 35H155.517Z" fill="#FFFFB8"/>
<path d="M178.577 24.8733V6.72L177.478 6.44C177.143 6.34667 176.808 5.92667 176.808 5.55333V0.84C176.808 0.513333 177.143 0 177.525 0H192.014C192.062 0 192.445 3.27826e-07 192.54 0.046667C192.732 0.046667 193.592 0.14 193.736 0.14C199.235 0.84 199.426 5.50667 199.426 9.84667L199.283 11.4333C199.187 12.7867 198.47 14.1867 197.466 15.1667C197.513 15.1667 197.657 15.3067 197.657 15.3067C199.522 16.6133 200 19.3667 200 21.4667V23.0533C200 28.42 197.466 31.5933 191.584 31.5933H177.525C177.095 31.5933 176.76 31.08 176.76 30.7067V26.1333C176.76 25.76 177.047 25.3867 177.43 25.2933L178.577 24.8733ZM172.744 5.08667V4.52667L174.274 3.40667H175.039L172.744 5.08667ZM172.744 6.39333V5.83333L175.995 3.45333V4.01333L172.744 6.39333ZM172.744 7.14L175.995 4.76V5.32L172.744 7.7V7.14ZM172.744 8.44667L175.947 6.06667H175.995C175.995 6.20667 176.091 6.39333 176.043 6.58L172.791 8.96L172.744 9.00667C172.696 8.86667 172.744 8.68 172.744 8.63333V8.44667ZM185.081 6.95333V8.44667L186.085 7.74667H186.898L185.081 9.05333V9.75333L187.902 7.74667H188.667L185.081 10.36V12.32H188.906V12.2267L192.158 9.8V10.4067L189.48 12.32H190.532L192.11 11.1533C192.11 11.2933 192.014 11.8067 191.967 11.8533L191.536 12.18C191.68 12.18 191.871 12.04 191.967 11.9933C192.923 11.48 192.971 10.2667 192.971 9.38C192.971 7 192.158 6.95333 190.006 6.95333H185.081ZM172.983 9.56667L173.03 9.52L176.378 7.09333C176.426 7.09333 176.521 7.14 176.569 7.18667C176.665 7.23333 176.76 7.23333 176.904 7.28L173.365 9.84667C173.317 9.89333 172.983 9.56667 172.983 9.56667ZM174.561 10.1267L174.13 10.0333L177.621 7.51333V7.46667C177.717 7.46667 177.812 7.51333 177.812 7.51333V7.88667L174.561 10.3133V10.1267ZM186.085 10.36L189.671 7.74667H190.006C190.006 7.74667 190.245 7.74667 190.389 7.79333L186.85 10.36C186.802 10.4067 186.802 10.36 186.754 10.36H186.085ZM187.711 10.5L191.154 7.93333C191.345 7.93333 191.536 8.07333 191.584 8.21333L188.237 10.64C188.141 10.64 187.711 10.5 187.711 10.5ZM174.561 11.5733V11.0133L177.812 8.63333V9.19333L174.561 11.5733ZM188.667 11.1067L192.014 8.63333C192.062 8.77333 192.11 8.96 192.11 9.1L188.811 11.5267C188.715 11.4333 188.715 11.2467 188.667 11.1067ZM174.561 12.32L177.812 9.94V10.5L174.561 12.88V12.32ZM174.561 14.14V13.6267L177.812 11.2467V11.76L174.561 14.14ZM174.561 15.4467V14.8867L177.812 12.5067V13.0667L174.561 15.4467ZM174.561 16.1933L177.812 13.8133V14.3733L174.561 16.7533V16.1933ZM174.561 17.5L177.812 15.12V15.68L174.561 18.06V17.5ZM174.561 19.3667V18.8067L177.764 16.4267H177.812V16.9867L174.561 19.3667ZM174.561 20.1133L177.812 17.6867V18.2933L174.561 20.6733V20.1133ZM185.081 18.76L185.129 20.2067C185.224 20.1133 185.846 19.6467 185.989 19.5533H186.802L185.081 20.7667V21.5133L187.806 19.5533H188.524L185.081 22.0267V24.64H189.719L192.779 22.4V22.96L190.484 24.5933H190.58C190.675 24.5933 191.536 24.5467 191.584 24.5467L192.684 23.7533C192.684 23.94 192.588 24.1267 192.54 24.2667C192.636 24.2667 192.779 24.1733 192.827 24.08C193.545 23.5667 193.545 22.5867 193.545 21.7933C193.545 19.6467 193.114 18.76 190.771 18.76H185.081ZM174.561 21.42L177.812 18.9933V19.5533L174.561 21.98V21.42ZM185.941 22.1667L189.48 19.5533H190.293L186.707 22.1667H185.941ZM187.663 22.2133L191.106 19.6933L191.154 19.6467C191.249 19.6467 191.632 19.7867 191.68 19.8333L188.237 22.3533C188.189 22.3533 188.045 22.3067 188.045 22.3067C187.998 22.3067 187.711 22.26 187.663 22.2133ZM188.811 22.68L192.158 20.2067C192.253 20.2533 192.301 20.3467 192.301 20.3467C192.349 20.3933 192.445 20.58 192.445 20.58L189.097 23.0067C189.097 23.0067 188.858 22.7267 188.811 22.68ZM174.561 23.2867V22.7267L177.812 20.3V20.86L174.561 23.2867ZM189.337 23.5667L192.636 21.1867C192.684 21.1867 192.732 21.6533 192.732 21.7L189.432 24.08C189.384 23.8467 189.384 23.8467 189.337 23.5667ZM174.561 24.5933V23.9867L177.812 21.6067V22.1667L174.561 24.5933ZM174.561 25.2933L177.812 22.9133V23.4733L174.561 25.9V25.2933ZM174.561 27.16V26.6L177.812 24.22V24.78L174.561 27.16ZM174.561 28.3267V27.9067L175.995 26.88V27.44L172.696 29.82V29.68C172.696 29.5867 172.696 29.26 172.791 29.2133L173.604 28.6067L174.561 28.3267ZM172.696 30.5667L175.995 28.1867V28.7L172.696 31.08V30.5667ZM172.696 32.3867V31.8267L175.9 29.4933C175.947 29.4933 175.947 29.4467 175.995 29.4467V30.0067L172.696 32.3867ZM172.696 33.6933V33.1333L175.995 30.7533V31.3133L172.696 33.6933ZM190.006 34.7667L193.688 32.1067C193.784 32.06 193.975 32.0133 194.023 32.0133C194.118 31.9667 194.501 31.8733 194.597 31.8267H194.644C194.644 31.8733 194.501 32.06 194.501 32.06L191.154 34.4867C191.058 34.58 190.102 34.7667 190.006 34.7667ZM172.791 34.3933L176.091 31.9667H176.139C176.186 32.1067 176.33 32.1533 176.426 32.2933L173.03 34.7667C172.935 34.7667 172.744 34.44 172.744 34.3933H172.791ZM188.045 34.9533L191.632 32.34L192.397 32.2933L188.763 34.9533H188.045ZM173.748 35L177.286 32.3867H178.051L174.513 35H173.748ZM175.517 35L179.056 32.3867H179.868L176.282 35H175.517ZM178.099 35H177.286L180.873 32.3867H181.638L178.099 35ZM179.103 35L182.642 32.3867H183.407L179.868 35H179.103ZM180.873 35L184.411 32.3867H185.224L181.638 35H180.873ZM182.642 35L186.228 32.3867H186.993L183.455 35H182.642ZM185.224 35H184.459L187.998 32.3867H188.763L185.224 35ZM186.228 35L189.767 32.3867H190.532L186.993 35H186.228Z" fill="#FFFFB8"/>
</svg>
